<?xml version="1.0" encoding="utf-8"?>
<!-- Generator: Adobe Illustrator 21.0.0, SVG Export Plug-In . SVG Version: 6.00 Build 0)  -->
<svg version="1.1" id="Layer_1" xmlns="http://www.w3.org/2000/svg" xmlns:xlink="http://www.w3.org/1999/xlink" x="0px" y="0px"
	 viewBox="0 0 2000 2160" style="enable-background:new 0 0 2000 2160;" xml:space="preserve">
<style type="text/css">
	.st0{fill:none;stroke:#30B1A7;stroke-width:3;stroke-miterlimit:10;}
</style>
<line class="st0" x1="1577.2" y1="126.6" x2="1577.2" y2="188.2"/>
<line class="st0" x1="1590.5" y1="359.2" x2="1590.5" y2="554.2"/>
<path class="st0" d="M424.3,1901.1v-354.2c0-10.6,8.6-19.2,19.2-19.2h1114.4c10.6,0,19.2-8.6,19.2-19.2v-432.5
	c0-10.6-8.6-19.2-19.2-19.2H443.5c-10.6,0-19.2-8.6-19.2-19.2v-434c0-10.6,8.6-19.2,19.2-19.2h1114.4c10.6,0,19.2-8.6,19.2-19.2
	V200.2"/>
<line class="st0" x1="424.3" y1="1920.6" x2="424.3" y2="1974.6"/>
<line class="st0" x1="409.5" y1="1562.1" x2="409.5" y2="1758.6"/>
<line class="st0" x1="1590.5" y1="1308.6" x2="1590.5" y2="1499.1"/>
<line class="st0" x1="409.5" y1="612.7" x2="409.5" y2="807.7"/>
</svg>
